<?xml version="1.0" encoding="utf-8"?>
<?xml-stylesheet type="text/xsl" href="rss1.xsl"?>
<rss version="2.0" xmlns:atom="http://www.w3.org/2005/Atom" xmlns:content="http://purl.org/rss/1.0/modules/content/" xmlns:dc="http://purl.org/dc/elements/1.1/" xmlns:media="http://search.yahoo.com/mrss/">
<channel>
 <title>Getty</title>
 <link>http://www.gettyimg.com/</link>
 <atom:link href="http://www.gettyimg.com/" rel="self" type="application/rss+xml" />

 
                <item>
                <title><![CDATA[【Requests】[REQ AUD] - 5 Albums in Flac (qobuz)]]></title>
                <link><![CDATA[https://sharemania.us/threads/5-albums-in-flac-qobuz.230860/]]></link>
                <description><![CDATA[<article>
<blockquote class="messageText SelectQuoteContainer ugc baseHtml">
Type O Negative - The Best of Type of Negative<br>
<a href="https://www.qobuz.com/de-de/album/the-best-of-type-o-negative-type-o-negative/0016861803605" target="_blank" class="externalLink" rel="nofollow">https://www.qobuz.com/de-de/album/the-best-of-type-o-negative-type-o-negative/0016861803605</a><br>
Type O Negative - The Origin of the Feces (2007 Reissue)<br>
<a href="https://www.qobuz.com/de-de/album/the-origin-of-the-feces-type-o-negative/0016861900601" target="_blank" class="externalLink" rel="nofollow">https://www.qobuz.com/de-de/album/the-origin-of-the-feces-type-o-negative/0016861900601</a><br>
Type O Negative - October Rust (Special Edition)<br>
<a href="https://www.qobuz.com/de-de/album/october-rust-type-o-negative/0016861887483" target="_blank" class="externalLink" rel="nofollow">https://www.qobuz.com/de-de/album/october-rust-type-o-negative/0016861887483</a><br>
Type O Negative - Slow, Deep and Hard (2009 Remaster)<br>
<a href="https://www.qobuz.com/de-de/album/slow-deep-and-hard-type-o-negative/0016861794408" target="_blank" class="externalLink" rel="nofollow">https://www.qobuz.com/de-de/album/slow-deep-and-hard-type-o-negative/0016861794408</a><br>
Kenan Dogulu - III<br>
<a href="https://www.qobuz.com/de-de/album/iii-kenan-dogulu/ew119wos93pmc" target="_blank" class="externalLink" rel="nofollow">https://www.qobuz.com/de-de/album/iii-kenan-dogulu/ew119wos93pmc</a><br>
<br>
Thanks in advance.
<div class="messageTextEndMarker">&nbsp;</div>
</blockquote>
</article>]]></description>
                <author><![CDATA[marcia89]]></author>
                </item>

                
                <item>
                <title><![CDATA[【SD】DVD - 2NE1.SCREAM.480i.DVD.REMUX.MPEG-2.PCM2.0]]></title>
                <link><![CDATA[https://sharemania.us/threads/2ne1-scream-480i-dvd-remux-mpeg-2-pcm2-0.230859/]]></link>
                <description><![CDATA[<article>
<blockquote class="messageText SelectQuoteContainer ugc baseHtml">
<img src="https://i.vgy.me/xqa8Fx.png" class="bbCodeImage LbImage" alt="[​IMG]" data-url="https://i.vgy.me/xqa8Fx.png" style=""> <br>
<div style="text-align: center">​</div>
<div class="ToggleTriggerAnchor bbCodeSpoilerContainer">
<button type="button" class="button bbCodeSpoilerButton ToggleTrigger Tooltip JsOnly" data-target="> .SpoilerTarget"><span>Spoiler: <span class="SpoilerTitle">MediaInfo</span></span></button>
<div class="SpoilerTarget bbCodeSpoilerText">General<br>
Complete name : 2NE1.SCREAM.480i.DVD.REMUX.MPEG-2.PCM2.0.mkv<br>
Format : Matroska<br>
Format version : Version 2<br>
File size : 260 MiB<br>
Duration : 3 min 42 s<br>
Overall bit rate mode : Constant<br>
Overall bit rate : 9 841 kb/s<br>
Frame rate : 29.970 FPS<br>
Encoded date : 2023-10-21 05:58:52 UTC<br>
Writing application : MakeMKV v1.17.3 darwin(arm64-release)<br>
Writing library : libmakemkv v1.17.3 (1.3.10/1.5.2) darwin(arm64-release)<br>
<br>
Video<br>
ID : 1<br>
ID in the original source medium : 224 (0xE0)<br>
Format : MPEG Video<br>
Format version : Version 2<br>
Format profile : Main@Main<br>
Format settings : CustomMatrix / BVOP<br>
Format settings, BVOP : Yes<br>
Format settings, Matrix : Custom<br>
Format settings, GOP : Variable<br>
Format settings, picture structure : Frame<br>
Codec ID : V_MPEG2<br>
Codec ID/Info : MPEG 1 or 2 Video<br>
Duration : 3 min 42 s<br>
Bit rate mode : Constant<br>
Bit rate : 8 300 kb/s<br>
Width : 720 pixels<br>
Height : 480 pixels<br>
Display aspect ratio : 16:9<br>
Frame rate mode : Constant<br>
Frame rate : 29.970 (30000/1001) FPS<br>
Standard : NTSC<br>
Color space : YUV<br>
Chroma subsampling : 4:2:0<br>
Bit depth : 8 bits<br>
Scan type : Interlaced<br>
Scan order : Top Field First<br>
Compression mode : Lossy<br>
Bits/(Pixel*Frame) : 0.801<br>
Time code of first frame : 00:59:59;00<br>
Time code source : Group of pictures header<br>
Stream size : 220 MiB (84%)<br>
Language : English<br>
Default : No<br>
Forced : No<br>
Original source medium : DVD-Video<br>
<br>
Audio<br>
ID : 2<br>
ID in the original source medium : 189 (0xBD)160 (0xA0)<br>
Format : PCM<br>
Format settings : Little / Signed<br>
Codec ID : A_PCM/INT/LIT<br>
Duration : 3 min 41 s<br>
Bit rate mode : Constant<br>
Bit rate : 1 536 kb/s<br>
Channel(s) : 2 channels<br>
Sampling rate : 48.0 kHz<br>
Frame rate : 30.004 FPS (1600 SPF)<br>
Bit depth : 16 bits<br>
Stream size : 40.6 MiB (16%)<br>
Title : Stereo<br>
Language : English<br>
Default : Yes<br>
Forced : No<br>
Original source medium : DVD-Video</div>
</div><div style="text-align: center">
<div class="bbCodeBlock bbCodeVfcHH HiddenContent">
<div class="attribution type">Hidden Content:</div>
<blockquote>You must either reply or click 'Like' to see the hidden information contained here.</blockquote>
</div></div>
<div class="messageTextEndMarker">&nbsp;</div>
</blockquote>
</article>]]></description>
                <author><![CDATA[netflix]]></author>
                </item>

                </channel></rss>